<?xml version="1.0" encoding="utf-8"?>
<!-- Generator: Adobe Illustrator 22.0.1, SVG Export Plug-In . SVG Version: 6.00 Build 0)  -->
<svg version="1.1" id="Layer_1" xmlns="http://www.w3.org/2000/svg" xmlns:xlink="http://www.w3.org/1999/xlink" x="0px" y="0px"
	 viewBox="0 0 268 60" style="enable-background:new 0 0 268 60;" xml:space="preserve">
<style type="text/css">
	.st0{fill:#FFFFFF;stroke:#C0C2C4;stroke-miterlimit:10;}
	.st1{fill-rule:evenodd;clip-rule:evenodd;fill:#F15C24;}
	.st2{fill:#F15C24;}
	.st3{fill-rule:evenodd;clip-rule:evenodd;fill:#FFFFFF;}
	.st4{fill:#FFFFFF;}
</style>
<g>
	<g>
		<g>
			<g>
				<g>
					<path class="st3" d="M20,21.7c-0.6,0-1.1,0.5-1.1,1.1c0,0.6,0.5,1.1,1.1,1.1c0.6,0,1.1-0.5,1.1-1.1C21,22.2,20.6,21.7,20,21.7z
						"/>
					<path class="st3" d="M31.2,21.7c-0.6,0-1.1,0.5-1.1,1.1c0,0.6,0.5,1.1,1.1,1.1c0.6,0,1.1-0.5,1.1-1.1
						C32.3,22.2,31.8,21.7,31.2,21.7z"/>
				</g>
				<g>
					<path class="st4" d="M48.3,18.2c-0.3,0-0.6,0.2-0.6,0.5v3.2H47v-3.2c0-0.3-0.3-0.5-0.6-0.5c-0.3,0-0.6,0.2-0.6,0.5v3.2h-0.7
						v-3.2c0-0.3-0.3-0.5-0.6-0.5c-0.3,0-0.6,0.2-0.6,0.5v3.6h0c0,1.2,0.5,2.3,1.8,2.6l0,0.1c-1.5,9.7-10,17.1-19.9,17.1
						c-8.7,0-16.4-5.6-19.1-13.8c-0.1-0.4-0.5-0.5-0.9-0.4c-0.4,0.1-0.5,0.5-0.4,0.9c2.9,8.8,11.1,14.7,20.4,14.7
						c5.2,0,10.2-1.9,14.1-5.2c3.9-3.3,6.4-8,7.2-13c0,0,0-0.1,0-0.2l0-0.1v0c1.3-0.3,1.8-1.4,1.8-2.6h0v-3.6
						C48.9,18.4,48.6,18.2,48.3,18.2z"/>
					<path class="st4" d="M5.7,20.6C6.5,10.2,15.3,1.9,25.8,1.9c9.1,0,17.1,6.2,19.4,15c0.1,0.4,0.5,0.6,0.8,0.5
						c0.4-0.1,0.6-0.5,0.5-0.8c-2.5-9.4-11-16-20.8-16c-5.6,0-11,2.2-15,6.1c-3.8,3.7-6.1,8.7-6.4,14c-3.8,0.6-1.8,6.9,0.6,6.9
						C7.5,27.5,9.4,21.3,5.7,20.6z M5,21.8c-0.5,0-0.9,0-1.4,0.1C4,21.5,4.5,21.2,5,21.2c0.5,0,1,0.3,1.4,0.8
						C6,21.9,5.5,21.8,5,21.8z"/>
				</g>
			</g>
			<path class="st3" d="M43.7,35.6c-0.6-4.3-1.2-8.6-1.9-12.9c-0.5-3.4-1.2-6.8-3.3-9.6c-3.6-5-8.4-8-14.7-7.1
				c-6.5,0.9-11.2,4.7-13.1,11.1C9.7,20.7,9.3,24.4,8.6,28c-0.5,2.5-0.9,5.1-1.3,7.6h0c-0.7,3.2-1.1,6.4-2.2,9.5
				c-0.8,2.1-1.2,3.3-2.2,5.4c-0.8,1.6-1.4,2.8-2,4.4c-0.6,1.8,0,2.5,0.3,2.7c0.3,0.2,1.4,0.9,2.8,1c0,0,1.7,0.3,3.7-0.2
				c2.7-0.7,5.3-1.6,7.9-3c2.5-1.4,4.6-1.7,5.9,1.6c1.6,4.2,4.3,3.3,6.3,0.9c2-2.3,3.3-5.3,4.7-8.1c1.4-2.9,2.7-5.1,6.1-1.9
				c2.6,2.5,4.4,0.5,4.9-2C43.6,46,44.5,41.5,43.7,35.6z M23.1,20.6c-0.3,0.1-0.5,0.1-0.7-0.2c-0.1-0.1-0.1-0.2-0.2-0.3
				c-0.7-1.2-2.5-1.4-3.3-0.2c-0.1,0.2-0.2,0.3-0.3,0.5c-0.2,0.2-0.4,0.3-0.7,0.2c-0.3-0.1-0.3-0.4-0.2-0.7c0.4-1.1,1.8-2,3-1.9
				c0.1,0,0.1,0,0.2,0c1.2,0.1,2,0.8,2.5,1.8C23.5,20.1,23.4,20.4,23.1,20.6z M27.8,23.7c0,0,0,0.1,0,0.1c-0.1,1-1,1.8-2,1.8
				c-1.1,0-2-0.9-2-2c0-0.3,0.2-0.6,0.5-0.6c0.3,0,0.5,0.2,0.6,0.5c0,0.1,0,0.2,0,0.3c0.1,0.5,0.7,0.9,1.2,0.7
				c0.4-0.1,0.7-0.4,0.7-0.9c0-0.4,0.3-0.6,0.6-0.6C27.7,23,27.9,23.3,27.8,23.7z M33.7,20.6c-0.2,0.1-0.5,0-0.6-0.2
				c-0.1-0.1-0.1-0.2-0.2-0.3c-0.7-1.3-2.5-1.4-3.4-0.2c-0.1,0.1-0.2,0.3-0.3,0.5c-0.2,0.3-0.5,0.3-0.8,0.1
				c-0.2-0.2-0.2-0.4-0.1-0.7c0.6-1.1,1.4-1.7,2.5-1.8c1,0,1.7,0.2,2.4,0.8c0.3,0.3,0.6,0.7,0.8,1.2C34,20.2,33.9,20.5,33.7,20.6z"
				/>
		</g>
	</g>
	<path class="st4" d="M68.6,40.5c-2.1-1.2-3.7-3-4.8-5.3c-1.1-2.3-1.7-5-1.7-8.1c0-3.1,0.6-5.8,1.7-8.1c1.1-2.3,2.7-4.1,4.8-5.3
		c2.1-1.2,4.5-1.9,7.2-1.9s5.2,0.6,7.2,1.9c2.1,1.2,3.7,3,4.8,5.3c1.1,2.3,1.7,5,1.7,8.1c0,3.1-0.6,5.7-1.7,8.1
		c-1.1,2.3-2.7,4.1-4.8,5.3c-2.1,1.2-4.5,1.9-7.2,1.9S70.6,41.7,68.6,40.5z M81.7,34.9c1.4-1.8,2-4.4,2-7.8c0-3.4-0.7-6-2.1-7.8
		c-1.4-1.8-3.3-2.7-5.8-2.7s-4.5,0.9-5.8,2.7c-1.4,1.8-2.1,4.4-2.1,7.8c0,3.4,0.7,6,2,7.8c1.4,1.8,3.3,2.7,5.9,2.7
		C78.3,37.5,80.3,36.7,81.7,34.9z"/>
	<path class="st4" d="M117.8,23.7v15.7c0,0.9-0.3,1.6-0.8,2.1c-0.5,0.5-1.2,0.8-2.1,0.8c-0.9,0-1.6-0.3-2.1-0.8
		c-0.5-0.5-0.8-1.2-0.8-2.1V24c0-2.5-0.5-4.3-1.4-5.5c-0.9-1.2-2.4-1.8-4.4-1.8c-2.3,0-4.2,0.8-5.6,2.3c-1.4,1.5-2.1,3.6-2.1,6.2
		v14.2c0,0.9-0.3,1.6-0.8,2.1c-0.5,0.5-1.2,0.8-2.1,0.8c-0.9,0-1.6-0.3-2.1-0.8c-0.5-0.5-0.8-1.2-0.8-2.1V14.8
		c0-0.8,0.3-1.5,0.8-2.1c0.6-0.5,1.2-0.8,2.1-0.8c0.8,0,1.5,0.3,2,0.8c0.5,0.5,0.7,1.2,0.7,2.1v2.5c0.9-1.8,2.2-3.1,3.8-4
		c1.6-0.9,3.5-1.4,5.5-1.4C114.5,11.8,117.8,15.7,117.8,23.7z"/>
	<path class="st4" d="M146.8,23.7v15.7c0,0.9-0.3,1.6-0.8,2.1c-0.5,0.5-1.2,0.8-2.1,0.8c-0.9,0-1.6-0.3-2.1-0.8
		c-0.5-0.5-0.8-1.2-0.8-2.1V24c0-2.5-0.5-4.3-1.4-5.5c-0.9-1.2-2.4-1.8-4.4-1.8c-2.3,0-4.2,0.8-5.6,2.3c-1.4,1.5-2.1,3.6-2.1,6.2
		v14.2c0,0.9-0.3,1.6-0.8,2.1c-0.5,0.5-1.2,0.8-2.1,0.8c-0.9,0-1.6-0.3-2.1-0.8c-0.5-0.5-0.8-1.2-0.8-2.1V14.8
		c0-0.8,0.3-1.5,0.8-2.1c0.6-0.5,1.2-0.8,2.1-0.8c0.8,0,1.5,0.3,2,0.8c0.5,0.5,0.7,1.2,0.7,2.1v2.5c0.9-1.8,2.2-3.1,3.8-4
		c1.6-0.9,3.5-1.4,5.5-1.4C143.5,11.8,146.8,15.7,146.8,23.7z"/>
	<path class="st4" d="M156.5,40.5c-2.1-1.2-3.7-3-4.8-5.3c-1.1-2.3-1.7-5-1.7-8.1c0-3.1,0.6-5.8,1.7-8.1c1.1-2.3,2.7-4.1,4.8-5.3
		c2.1-1.2,4.5-1.9,7.2-1.9s5.2,0.6,7.2,1.9c2.1,1.2,3.7,3,4.8,5.3c1.1,2.3,1.7,5,1.7,8.1c0,3.1-0.6,5.7-1.7,8.1
		c-1.1,2.3-2.7,4.1-4.8,5.3c-2.1,1.2-4.5,1.9-7.2,1.9S158.5,41.7,156.5,40.5z M169.6,34.9c1.4-1.8,2-4.4,2-7.8c0-3.4-0.7-6-2.1-7.8
		c-1.4-1.8-3.3-2.7-5.8-2.7c-2.5,0-4.5,0.9-5.8,2.7c-1.4,1.8-2.1,4.4-2.1,7.8c0,3.4,0.7,6,2,7.8c1.4,1.8,3.3,2.7,5.9,2.7
		C166.2,37.5,168.2,36.7,169.6,34.9z"/>
	<path class="st4" d="M220.6,12c0.7,0,1.4,0.3,1.9,0.8c0.6,0.5,0.9,1.2,0.9,1.9c0,0.4-0.1,0.8-0.2,1.1l-9.5,24.4
		c-0.2,0.6-0.6,1.1-1.1,1.5c-0.5,0.3-1.1,0.5-1.8,0.5c-0.6,0-1.2-0.2-1.7-0.5c-0.5-0.3-0.9-0.8-1.1-1.5l-7.4-19.4l-7.3,19.4
		c-0.2,0.6-0.6,1.1-1.1,1.5c-0.5,0.3-1.1,0.5-1.7,0.5c-0.6,0-1.2-0.2-1.7-0.5c-0.6-0.3-1-0.8-1.2-1.5l-9.4-24.4
		c-0.2-0.3-0.2-0.7-0.2-1c0-0.8,0.3-1.5,0.9-2c0.6-0.5,1.3-0.8,2.1-0.8c1.1,0,1.9,0.6,2.3,1.8l7.4,20.6l7.5-20.4
		c0.2-0.6,0.6-1.1,1.1-1.4c0.5-0.3,1-0.5,1.6-0.5c0.5,0,1,0.2,1.5,0.5c0.5,0.3,0.9,0.8,1.1,1.4l7.5,20.3l7.4-20.4
		C218.7,12.6,219.5,12,220.6,12z"/>
	<path class="st4" d="M222.9,41.2c-0.7-0.7-1.1-1.6-1.1-2.8c0-1.1,0.4-2.1,1.1-2.8c0.7-0.7,1.6-1.1,2.6-1.1c1,0,1.9,0.4,2.6,1.1
		c0.7,0.7,1,1.7,1,2.8c0,1.1-0.3,2.1-1,2.8c-0.7,0.7-1.5,1.1-2.6,1.1C224.5,42.3,223.6,41.9,222.9,41.2z"/>
	<path class="st4" d="M234.5,4.5c-0.5-0.5-0.7-1.1-0.7-1.9c0-0.8,0.2-1.4,0.7-1.9c0.5-0.5,1.1-0.7,1.9-0.7c0.8,0,1.4,0.2,1.9,0.7
		c0.5,0.5,0.7,1.1,0.7,1.9c0,0.8-0.2,1.4-0.7,1.9c-0.5,0.5-1.1,0.7-1.9,0.7C235.6,5.3,234.9,5,234.5,4.5z M235,41.8
		c-0.3-0.3-0.5-0.8-0.5-1.4V13.9c0-0.6,0.2-1.1,0.5-1.4c0.3-0.3,0.8-0.5,1.3-0.5c0.5,0,1,0.2,1.3,0.5c0.3,0.3,0.5,0.8,0.5,1.4v26.4
		c0,0.6-0.2,1.1-0.5,1.4c-0.3,0.3-0.7,0.5-1.3,0.5C235.8,42.3,235.4,42.1,235,41.8z"/>
	<path class="st4" d="M248.4,40.5c-1.9-1.2-3.4-3-4.5-5.3c-1.1-2.3-1.6-5-1.6-8c0-3.1,0.5-5.7,1.6-8c1.1-2.3,2.6-4.1,4.5-5.3
		c1.9-1.2,4.2-1.9,6.7-1.9c2.5,0,4.7,0.6,6.7,1.9c1.9,1.2,3.4,3,4.5,5.3c1,2.3,1.6,5,1.6,8c0,3.1-0.5,5.7-1.6,8
		c-1,2.3-2.5,4.1-4.5,5.3c-1.9,1.2-4.2,1.9-6.7,1.9C252.6,42.4,250.3,41.7,248.4,40.5z M261.9,36c1.6-2.1,2.4-5,2.4-8.9
		c0-3.8-0.8-6.7-2.4-8.8c-1.6-2.1-3.9-3.2-6.7-3.2c-2.9,0-5.1,1.1-6.7,3.2c-1.6,2.1-2.4,5.1-2.4,8.8c0,3.9,0.8,6.8,2.3,8.9
		c1.6,2.1,3.8,3.1,6.7,3.1C258,39.1,260.3,38.1,261.9,36z"/>
</g>
</svg>
